<svg width="60" height="60" viewBox="0 0 60 60" fill="none" xmlns="http://www.w3.org/2000/svg">
<rect width="60" height="60" rx="8" fill="#A4D97E"/>
<path d="M48.75 28.75H47.5V23.75C47.5 23.087 47.2366 22.4511 46.7678 21.9822C46.2989 21.5134 45.663 21.25 45 21.25H42.5V20C42.5 19.337 42.2366 18.7011 41.7678 18.2322C41.2989 17.7634 40.663 17.5 40 17.5H36.25C35.587 17.5 34.9511 17.7634 34.4822 18.2322C34.0134 18.7011 33.75 19.337 33.75 20V28.75H26.25V20C26.25 19.337 25.9866 18.7011 25.5178 18.2322C25.0489 17.7634 24.413 17.5 23.75 17.5H20C19.337 17.5 18.7011 17.7634 18.2322 18.2322C17.7634 18.7011 17.5 19.337 17.5 20V21.25H15C14.337 21.25 13.7011 21.5134 13.2322 21.9822C12.7634 22.4511 12.5 23.087 12.5 23.75V28.75H11.25C10.9185 28.75 10.6005 28.8817 10.3661 29.1161C10.1317 29.3505 10 29.6685 10 30C10 30.3315 10.1317 30.6495 10.3661 30.8839C10.6005 31.1183 10.9185 31.25 11.25 31.25H12.5V36.25C12.5 36.913 12.7634 37.5489 13.2322 38.0178C13.7011 38.4866 14.337 38.75 15 38.75H17.5V40C17.5 40.663 17.7634 41.2989 18.2322 41.7678C18.7011 42.2366 19.337 42.5 20 42.5H23.75C24.413 42.5 25.0489 42.2366 25.5178 41.7678C25.9866 41.2989 26.25 40.663 26.25 40V31.25H33.75V40C33.75 40.663 34.0134 41.2989 34.4822 41.7678C34.9511 42.2366 35.587 42.5 36.25 42.5H40C40.663 42.5 41.2989 42.2366 41.7678 41.7678C42.2366 41.2989 42.5 40.663 42.5 40V38.75H45C45.663 38.75 46.2989 38.4866 46.7678 38.0178C47.2366 37.5489 47.5 36.913 47.5 36.25V31.25H48.75C49.0815 31.25 49.3995 31.1183 49.6339 30.8839C49.8683 30.6495 50 30.3315 50 30C50 29.6685 49.8683 29.3505 49.6339 29.1161C49.3995 28.8817 49.0815 28.75 48.75 28.75ZM15 36.25V23.75H17.5V36.25H15ZM23.75 40H20V20H23.75V40ZM40 40H36.25V20H40V40ZM45 36.25H42.5V23.75H45V36.25Z" fill="#22731F"/>
</svg>
