<svg width="60" height="60" viewBox="0 0 60 60" fill="none" xmlns="http://www.w3.org/2000/svg">
<rect width="60" height="60" rx="8" fill="#A4D97E"/>
<path d="M21.25 31.25H15C14.6685 31.25 14.3505 31.1183 14.1161 30.8839C13.8817 30.6495 13.75 30.3315 13.75 30C13.75 29.6685 13.8817 29.3505 14.1161 29.1161C14.3505 28.8817 14.6685 28.75 15 28.75H20.5781L22.7031 25.5625C22.8167 25.3884 22.9719 25.2454 23.1547 25.1464C23.3375 25.0474 23.5421 24.9955 23.75 24.9955C23.9579 24.9955 24.1625 25.0474 24.3453 25.1464C24.5281 25.2454 24.6833 25.3884 24.7969 25.5625L28.75 31.5L30.2031 29.3125C30.3162 29.1382 30.4714 28.9953 30.6544 28.897C30.8374 28.7986 31.0423 28.7481 31.25 28.75H35C35.3315 28.75 35.6495 28.8817 35.8839 29.1161C36.1183 29.3505 36.25 29.6685 36.25 30C36.25 30.3315 36.1183 30.6495 35.8839 30.8839C35.6495 31.1183 35.3315 31.25 35 31.25H31.9219L29.7969 34.4375C29.6833 34.6116 29.5281 34.7546 29.3453 34.8536C29.1625 34.9526 28.9579 35.0045 28.75 35.0045C28.5421 35.0045 28.3375 34.9526 28.1547 34.8536C27.9719 34.7546 27.8167 34.6116 27.7031 34.4375L23.75 28.5L22.2969 30.6875C22.1838 30.8618 22.0286 31.0047 21.8456 31.103C21.6626 31.2014 21.4577 31.2519 21.25 31.25ZM37.5 15C36.0446 15 34.6091 15.3389 33.3074 15.9897C32.0056 16.6406 30.8733 17.5857 30 18.75C28.8194 17.1759 27.1735 16.0131 25.2953 15.4264C23.4172 14.8397 21.402 14.8589 19.5354 15.4811C17.6687 16.1033 16.0451 17.2971 14.8946 18.8933C13.7441 20.4896 13.125 22.4074 13.125 24.375C13.125 24.6094 13.125 24.8438 13.1406 25.0625C13.1608 25.3955 13.3116 25.7071 13.5604 25.9295C13.8091 26.1519 14.1355 26.2671 14.4688 26.25C14.633 26.2401 14.7937 26.1978 14.9416 26.1256C15.0895 26.0534 15.2216 25.9527 15.3305 25.8293C15.4394 25.7059 15.5228 25.5622 15.576 25.4065C15.6293 25.2508 15.6512 25.0861 15.6406 24.9219C15.625 24.75 15.625 24.5625 15.625 24.375C15.6236 22.7857 16.1728 21.2449 17.1793 20.0149C18.1858 18.7849 19.5874 17.9416 21.1456 17.6285C22.7038 17.3154 24.3223 17.5518 25.7258 18.2975C27.1293 19.0433 28.2311 20.2522 28.8438 21.7188C28.9379 21.948 29.0981 22.1441 29.304 22.2821C29.5099 22.4201 29.7521 22.4938 30 22.4938C30.2479 22.4938 30.4901 22.4201 30.696 22.2821C30.9019 22.1441 31.0621 21.948 31.1562 21.7188C31.7689 20.2522 32.8707 19.0433 34.2742 18.2975C35.6777 17.5518 37.2962 17.3154 38.8544 17.6285C40.4126 17.9416 41.8142 18.7849 42.8207 20.0149C43.8272 21.2449 44.3764 22.7857 44.375 24.375C44.375 33 32.8125 40.5781 30 42.2969C28.3438 41.2969 23.6719 38.2656 20.1094 34.1719C20.0006 34.0477 19.8685 33.9462 19.7205 33.8732C19.5725 33.8001 19.4116 33.7569 19.2469 33.746C18.9143 33.724 18.5866 33.8351 18.3359 34.0547C18.0852 34.2743 17.932 34.5846 17.9101 34.9171C17.8881 35.2497 17.9991 35.5774 18.2188 35.8281C22.9062 41.1719 29.125 44.6875 29.3906 44.8438C29.5774 44.9463 29.787 45.0001 30 45.0001C30.213 45.0001 30.4226 44.9463 30.6094 44.8438C33.4839 43.1633 36.1801 41.1948 38.6562 38.9688C44.1094 34.0625 46.875 29.1562 46.875 24.375C46.875 21.8886 45.8873 19.504 44.1291 17.7459C42.371 15.9877 39.9864 15 37.5 15Z" fill="#22731F"/>
</svg>
