<svg width="60" height="60" viewBox="0 0 60 60" fill="none" xmlns="http://www.w3.org/2000/svg">
<rect width="60" height="60" rx="8" fill="#A4D97E"/>
<path d="M45 17.5H35C34.0297 17.5 33.0728 17.7259 32.2049 18.1598C31.3371 18.5938 30.5822 19.2238 30 20C29.4178 19.2238 28.6629 18.5938 27.7951 18.1598C26.9272 17.7259 25.9703 17.5 25 17.5H15C14.337 17.5 13.7011 17.7634 13.2322 18.2322C12.7634 18.7011 12.5 19.337 12.5 20V40C12.5 40.663 12.7634 41.2989 13.2322 41.7678C13.7011 42.2366 14.337 42.5 15 42.5H25C25.9933 42.5041 26.9447 42.9005 27.6471 43.6029C28.3495 44.3053 28.7459 45.2567 28.75 46.25C28.75 46.5815 28.8817 46.8995 29.1161 47.1339C29.3505 47.3683 29.6685 47.5 30 47.5C30.3315 47.5 30.6495 47.3683 30.8839 47.1339C31.1183 46.8995 31.25 46.5815 31.25 46.25C31.2541 45.2567 31.6505 44.3053 32.3529 43.6029C33.0553 42.9005 34.0067 42.5041 35 42.5H45C45.663 42.5 46.2989 42.2366 46.7678 41.7678C47.2366 41.2989 47.5 40.663 47.5 40V20C47.5 19.337 47.2366 18.7011 46.7678 18.2322C46.2989 17.7634 45.663 17.5 45 17.5ZM25 40H15V20H25C25.9933 20.0041 26.9447 20.4005 27.6471 21.1029C28.3495 21.8053 28.7459 22.7567 28.75 23.75V41.25C27.6681 40.4386 26.3523 40 25 40ZM45 40H35C33.6477 40 32.3319 40.4386 31.25 41.25V23.75C31.2541 22.7567 31.6505 21.8053 32.3529 21.1029C33.0553 20.4005 34.0067 20.0041 35 20H45V40Z" fill="#22731F"/>
</svg>
