<svg width="60" height="60" viewBox="0 0 60 60" fill="none" xmlns="http://www.w3.org/2000/svg">
<rect width="60" height="60" rx="8" fill="#A4D97E"/>
<path d="M48.75 30.625C48.7501 28.9691 48.2803 27.3471 47.3953 25.9476C46.5102 24.5481 45.2461 23.4284 43.75 22.7188V21.25C43.7489 19.6393 43.2293 18.0717 42.268 16.7792C41.3067 15.4868 39.9549 14.5382 38.4126 14.0737C36.8703 13.6093 35.2194 13.6537 33.7043 14.2004C32.1892 14.7471 30.8904 15.7671 30 17.1094C29.1096 15.7671 27.8108 14.7471 26.2957 14.2004C24.7806 13.6537 23.1297 13.6093 21.5874 14.0737C20.0451 14.5382 18.6933 15.4868 17.732 16.7792C16.7708 18.0717 16.2511 19.6393 16.25 21.25V22.7188C14.7537 23.4283 13.4894 24.5478 12.6041 25.9474C11.7188 27.3469 11.2488 28.969 11.2488 30.625C11.2488 32.281 11.7188 33.9031 12.6041 35.3026C13.4894 36.7022 14.7537 37.8217 16.25 38.5313V38.75C16.2511 40.3607 16.7708 41.9283 17.732 43.2208C18.6933 44.5132 20.0451 45.4619 21.5874 45.9263C23.1297 46.3907 24.7806 46.3463 26.2957 45.7996C27.8108 45.2529 29.1096 44.2329 30 42.8906C30.8904 44.2329 32.1892 45.2529 33.7043 45.7996C35.2194 46.3463 36.8703 46.3907 38.4126 45.9263C39.9549 45.4619 41.3067 44.5132 42.268 43.2208C43.2293 41.9283 43.7489 40.3607 43.75 38.75V38.5313C45.245 37.8201 46.508 36.7001 47.3928 35.3009C48.2777 33.9017 48.7482 32.2805 48.75 30.625ZM23.75 43.75C22.5164 43.7493 21.3266 43.2926 20.4094 42.4676C19.4922 41.6427 18.9123 40.5079 18.7813 39.2813C19.1844 39.3447 19.5919 39.3761 20 39.375H21.25C21.5815 39.375 21.8995 39.2433 22.1339 39.0089C22.3683 38.7745 22.5 38.4565 22.5 38.125C22.5 37.7935 22.3683 37.4755 22.1339 37.2411C21.8995 37.0067 21.5815 36.875 21.25 36.875H20C18.5271 36.8725 17.1023 36.3499 15.9772 35.3993C14.852 34.4487 14.0988 33.1313 13.8502 31.6795C13.6017 30.2277 13.874 28.7347 14.6189 27.4641C15.3639 26.1934 16.5336 25.2266 17.9219 24.7344C18.1648 24.6449 18.3744 24.4831 18.5225 24.2707C18.6706 24.0584 18.75 23.8058 18.75 23.5469V21.25C18.75 19.9239 19.2768 18.6522 20.2145 17.7145C21.1522 16.7768 22.4239 16.25 23.75 16.25C25.0761 16.25 26.3479 16.7768 27.2855 17.7145C28.2232 18.6522 28.75 19.9239 28.75 21.25V33.1719C27.3815 31.9299 25.5981 31.2444 23.75 31.25C23.4185 31.25 23.1005 31.3817 22.8661 31.6161C22.6317 31.8505 22.5 32.1685 22.5 32.5C22.5 32.8315 22.6317 33.1495 22.8661 33.3839C23.1005 33.6183 23.4185 33.75 23.75 33.75C25.0761 33.75 26.3479 34.2768 27.2855 35.2145C28.2232 36.1522 28.75 37.4239 28.75 38.75C28.75 40.0761 28.2232 41.3479 27.2855 42.2855C26.3479 43.2232 25.0761 43.75 23.75 43.75ZM40 36.875H38.75C38.4185 36.875 38.1005 37.0067 37.8661 37.2411C37.6317 37.4755 37.5 37.7935 37.5 38.125C37.5 38.4565 37.6317 38.7745 37.8661 39.0089C38.1005 39.2433 38.4185 39.375 38.75 39.375H40C40.4081 39.3761 40.8156 39.3447 41.2188 39.2813C41.1161 40.2422 40.7371 41.1527 40.1278 41.9028C39.5184 42.6528 38.7048 43.2102 37.7853 43.5075C36.8658 43.8048 35.8798 43.8293 34.9467 43.5779C34.0136 43.3266 33.1733 42.8103 32.5275 42.0913C31.8817 41.3724 31.458 40.4818 31.3078 39.5271C31.1576 38.5725 31.2873 37.5948 31.6811 36.7123C32.075 35.8298 32.7161 35.0804 33.5269 34.5547C34.3378 34.0289 35.2836 33.7494 36.25 33.75C36.5815 33.75 36.8995 33.6183 37.1339 33.3839C37.3683 33.1495 37.5 32.8315 37.5 32.5C37.5 32.1685 37.3683 31.8505 37.1339 31.6161C36.8995 31.3817 36.5815 31.25 36.25 31.25C34.4019 31.2444 32.6185 31.9299 31.25 33.1719V21.25C31.25 19.9239 31.7768 18.6522 32.7145 17.7145C33.6522 16.7768 34.9239 16.25 36.25 16.25C37.5761 16.25 38.8479 16.7768 39.7855 17.7145C40.7232 18.6522 41.25 19.9239 41.25 21.25V23.5469C41.25 23.8058 41.3294 24.0584 41.4775 24.2707C41.6256 24.4831 41.8352 24.6449 42.0781 24.7344C43.4664 25.2266 44.6362 26.1934 45.3811 27.4641C46.1261 28.7347 46.3983 30.2277 46.1498 31.6795C45.9013 33.1313 45.148 34.4487 44.0228 35.3993C42.8977 36.3499 41.4729 36.8725 40 36.875ZM19.375 30C19.0435 30 18.7255 29.8683 18.4911 29.6339C18.2567 29.3995 18.125 29.0815 18.125 28.75C18.125 28.4185 18.2567 28.1005 18.4911 27.8661C18.7255 27.6317 19.0435 27.5 19.375 27.5C20.2025 27.4959 20.995 27.1653 21.5802 26.5802C22.1653 25.995 22.4959 25.2025 22.5 24.375V23.125C22.5 22.7935 22.6317 22.4755 22.8661 22.2411C23.1005 22.0067 23.4185 21.875 23.75 21.875C24.0815 21.875 24.3995 22.0067 24.6339 22.2411C24.8683 22.4755 25 22.7935 25 23.125V24.375C25 25.8668 24.4074 27.2976 23.3525 28.3525C22.2976 29.4074 20.8669 30 19.375 30ZM41.875 28.75C41.875 29.0815 41.7433 29.3995 41.5089 29.6339C41.2745 29.8683 40.9565 30 40.625 30C39.1332 30 37.7024 29.4074 36.6475 28.3525C35.5926 27.2976 35 25.8668 35 24.375V23.125C35 22.7935 35.1317 22.4755 35.3661 22.2411C35.6005 22.0067 35.9185 21.875 36.25 21.875C36.5815 21.875 36.8995 22.0067 37.1339 22.2411C37.3683 22.4755 37.5 22.7935 37.5 23.125V24.375C37.5041 25.2025 37.8347 25.995 38.4198 26.5802C39.005 27.1653 39.7975 27.4959 40.625 27.5C40.9565 27.5 41.2745 27.6317 41.5089 27.8661C41.7433 28.1005 41.875 28.4185 41.875 28.75Z" fill="#22731F"/>
</svg>
