<svg width="60" height="60" viewBox="0 0 60 60" fill="none" xmlns="http://www.w3.org/2000/svg">
<rect width="60" height="60" rx="8" fill="#A4D97E"/>
<path d="M46.25 36.25H45V21.25C44.9959 20.2567 44.5995 19.3053 43.8971 18.6029C43.1947 17.9005 42.2433 17.5041 41.25 17.5H18.75C17.7567 17.5041 16.8053 17.9005 16.1029 18.6029C15.4005 19.3053 15.0041 20.2567 15 21.25V36.25H13.75C13.4185 36.25 13.1005 36.3817 12.8661 36.6161C12.6317 36.8505 12.5 37.1685 12.5 37.5V40C12.5041 40.9933 12.9005 41.9447 13.6029 42.6471C14.3053 43.3495 15.2567 43.7459 16.25 43.75H43.75C44.7433 43.7459 45.6947 43.3495 46.3971 42.6471C47.0995 41.9447 47.4959 40.9933 47.5 40V37.5C47.5 37.1685 47.3683 36.8505 47.1339 36.6161C46.8995 36.3817 46.5815 36.25 46.25 36.25ZM17.5 21.25C17.5 20.9185 17.6317 20.6005 17.8661 20.3661C18.1005 20.1317 18.4185 20 18.75 20H41.25C41.5815 20 41.8995 20.1317 42.1339 20.3661C42.3683 20.6005 42.5 20.9185 42.5 21.25V36.25H17.5V21.25ZM45 40C45 40.3315 44.8683 40.6495 44.6339 40.8839C44.3995 41.1183 44.0815 41.25 43.75 41.25H16.25C15.9185 41.25 15.6005 41.1183 15.3661 40.8839C15.1317 40.6495 15 40.3315 15 40V38.75H45V40ZM33.75 23.75C33.75 24.0815 33.6183 24.3995 33.3839 24.6339C33.1495 24.8683 32.8315 25 32.5 25H27.5C27.1685 25 26.8505 24.8683 26.6161 24.6339C26.3817 24.3995 26.25 24.0815 26.25 23.75C26.25 23.4185 26.3817 23.1005 26.6161 22.8661C26.8505 22.6317 27.1685 22.5 27.5 22.5H32.5C32.8315 22.5 33.1495 22.6317 33.3839 22.8661C33.6183 23.1005 33.75 23.4185 33.75 23.75Z" fill="#22731F"/>
</svg>
